<?xml version="1.0" encoding="utf-8"?><svg width="auto" height="2220" style="overflow:visible " version="1.1" xmlns="http://www.w3.org/2000/svg"><rect x="20" y="20" width="200" height="40" style="fill:white;stroke:black;stroke-width:1" /><text x="30" y="30" font-size="10" style="fill:blue">circuito</text><text x="30" y="40" font-size="8" style="fill:black">nombre: MARINA BAY</text><text x="30" y="50" font-size="8" style="fill:black">longitud: 4.94 km</text><text x="30" y="60" font-size="8" style="fill:black">anchuraMedia: 13.5 m</text><text x="30" y="70" font-size="8" style="fill:black">fecha: 22/09/2024</text><text x="30" y="80" font-size="8" style="fill:black">hora: 14:00</text><text x="30" y="90" font-size="8" style="fill:black">numeroDeVueltas: 62</text><text x="30" y="100" font-size="8" style="fill:black">localidad: Singapur</text><text x="30" y="110" font-size="8" style="fill:black">pais: Singapur</text><rect x="240" y="20" width="200" height="40" style="fill:white;stroke:black;stroke-width:1" /><text x="250" y="30" font-size="10" style="fill:blue">bibliografia</text><path d="M220 40 C240 40 220 40 240 40" style="fill:transparent;stroke:black" /><rect x="460" y="20" width="200" height="40" style="fill:white;stroke:black;stroke-width:1" /><text x="470" y="30" font-size="10" style="fill:blue">referencia</text><path d="M440 40 C460 40 440 40 460 40" style="fill:transparent;stroke:black" /><text x="470" y="40" font-size="8" style="fill:black">link: https://www.formula1.com/en/racing/2024/singapore/circuit</text><rect x="460" y="70" width="200" height="40" style="fill:white;stroke:black;stroke-width:1" /><text x="470" y="80" font-size="10" style="fill:blue">referencia</text><path d="M440 40 C460 40 440 90 460 90" style="fill:transparent;stroke:black" /><text x="470" y="90" font-size="8" style="fill:black">link: https://es.wikipedia.org/wiki/Gran_Premio_de_Singapur</text><rect x="460" y="120" width="200" height="40" style="fill:white;stroke:black;stroke-width:1" /><text x="470" y="130" font-size="10" style="fill:blue">referencia</text><path d="M440 40 C460 40 440 140 460 140" style="fill:transparent;stroke:black" /><text x="470" y="140" font-size="8" style="fill:black">link: https://soymotor.com/f1/gp-de-singapur-f1-2024</text><rect x="240" y="220" width="200" height="40" style="fill:white;stroke:black;stroke-width:1" /><text x="250" y="230" font-size="10" style="fill:blue">imagenes</text><path d="M220 40 C240 40 220 240 240 240" style="fill:transparent;stroke:black" /><rect x="460" y="220" width="200" height="40" style="fill:white;stroke:black;stroke-width:1" /><text x="470" y="230" font-size="10" style="fill:blue">imagen</text><path d="M440 240 C460 240 440 240 460 240" style="fill:transparent;stroke:black" /><text x="470" y="240" font-size="8" style="fill:black">link: General.jpg</text><rect x="460" y="270" width="200" height="40" style="fill:white;stroke:black;stroke-width:1" /><text x="470" y="280" font-size="10" style="fill:blue">imagen</text><path d="M440 240 C460 240 440 290 460 290" style="fill:transparent;stroke:black" /><text x="470" y="290" font-size="8" style="fill:black">link: RectaSalida.jpg</text><rect x="460" y="320" width="200" height="40" style="fill:white;stroke:black;stroke-width:1" /><text x="470" y="330" font-size="10" style="fill:blue">imagen</text><path d="M440 240 C460 240 440 340 460 340" style="fill:transparent;stroke:black" /><text x="470" y="340" font-size="8" style="fill:black">link: parrillaSalida.jpg</text><rect x="240" y="420" width="200" height="40" style="fill:white;stroke:black;stroke-width:1" /><text x="250" y="430" font-size="10" style="fill:blue">coordenadas</text><path d="M220 40 C240 40 220 440 240 440" style="fill:transparent;stroke:black" /><rect x="460" y="420" width="200" height="40" style="fill:white;stroke:black;stroke-width:1" /><text x="470" y="430" font-size="10" style="fill:blue">coordenada</text><path d="M440 440 C460 440 440 440 460 440" style="fill:transparent;stroke:black" /><text x="470" y="440" font-size="8" style="fill:black">longitud: 103.864164</text><text x="470" y="450" font-size="8" style="fill:black">latitud: 1.291695</text><text x="470" y="460" font-size="8" style="fill:black">altitud: 4.16 m</text><rect x="240" y="520" width="200" height="40" style="fill:white;stroke:black;stroke-width:1" /><text x="250" y="530" font-size="10" style="fill:blue">tramos</text><path d="M220 40 C240 40 220 540 240 540" style="fill:transparent;stroke:black" /><rect x="460" y="520" width="200" height="40" style="fill:white;stroke:black;stroke-width:1" /><text x="470" y="530" font-size="10" style="fill:blue">tramo</text><path d="M440 540 C460 540 440 540 460 540" style="fill:transparent;stroke:black" /><text x="470" y="540" font-size="8" style="fill:black">distancia: 289.63</text><text x="470" y="550" font-size="8" style="fill:black">longitud: 103.8637738530413</text><text x="470" y="560" font-size="8" style="fill:black">latitud: 1.294281669572479</text><text x="470" y="570" font-size="8" style="fill:black">altitud: 3.888835173321012</text><text x="470" y="580" font-size="8" style="fill:black">numeroSector: 1</text><rect x="460" y="570" width="200" height="40" style="fill:white;stroke:black;stroke-width:1" /><text x="470" y="580" font-size="10" style="fill:blue">tramo</text><path d="M440 540 C460 540 440 590 460 590" style="fill:transparent;stroke:black" /><text x="470" y="590" font-size="8" style="fill:black">distancia: 69.23</text><text x="470" y="600" font-size="8" style="fill:black">longitud: 103.8631603759677</text><text x="470" y="610" font-size="8" style="fill:black">latitud: 1.29438304626351</text><text x="470" y="620" font-size="8" style="fill:black">altitud: 3.902496879933481</text><text x="470" y="630" font-size="8" style="fill:black">numeroSector: 1</text><rect x="460" y="620" width="200" height="40" style="fill:white;stroke:black;stroke-width:1" /><text x="470" y="630" font-size="10" style="fill:blue">tramo</text><path d="M440 540 C460 540 440 640 460 640" style="fill:transparent;stroke:black" /><text x="470" y="640" font-size="8" style="fill:black">distancia: 65.91</text><text x="470" y="650" font-size="8" style="fill:black">longitud: 103.8627546319357</text><text x="470" y="660" font-size="8" style="fill:black">latitud: 1.294802638000904</text><text x="470" y="670" font-size="8" style="fill:black">altitud: 3.635906857499207</text><text x="470" y="680" font-size="8" style="fill:black">numeroSector: 1</text><rect x="460" y="670" width="200" height="40" style="fill:white;stroke:black;stroke-width:1" /><text x="470" y="680" font-size="10" style="fill:blue">tramo</text><path d="M440 540 C460 540 440 690 460 690" style="fill:transparent;stroke:black" /><text x="470" y="690" font-size="8" style="fill:black">distancia: 34.42</text><text x="470" y="700" font-size="8" style="fill:black">longitud: 103.8624762891005</text><text x="470" y="710" font-size="8" style="fill:black">latitud: 1.294668128549302</text><text x="470" y="720" font-size="8" style="fill:black">altitud: 3.507211924260374</text><text x="470" y="730" font-size="8" style="fill:black">numeroSector: 1</text><rect x="460" y="720" width="200" height="40" style="fill:white;stroke:black;stroke-width:1" /><text x="470" y="730" font-size="10" style="fill:blue">tramo</text><path d="M440 540 C460 540 440 740 460 740" style="fill:transparent;stroke:black" /><text x="470" y="740" font-size="8" style="fill:black">distancia: 108.89</text><text x="470" y="750" font-size="8" style="fill:black">longitud: 103.862434598204</text><text x="470" y="760" font-size="8" style="fill:black">latitud: 1.293690359398066</text><text x="470" y="770" font-size="8" style="fill:black">altitud: 3.059184888400206</text><text x="470" y="780" font-size="8" style="fill:black">numeroSector: 1</text><rect x="460" y="770" width="200" height="40" style="fill:white;stroke:black;stroke-width:1" /><text x="470" y="780" font-size="10" style="fill:blue">tramo</text><path d="M440 540 C460 540 440 790 460 790" style="fill:transparent;stroke:black" /><text x="470" y="790" font-size="8" style="fill:black">distancia: 240.38</text><text x="470" y="800" font-size="8" style="fill:black">longitud: 103.862945150358</text><text x="470" y="810" font-size="8" style="fill:black">latitud: 1.291596030137787</text><text x="470" y="820" font-size="8" style="fill:black">altitud: 4.119456233819749</text><text x="470" y="830" font-size="8" style="fill:black">numeroSector: 1</text><rect x="460" y="820" width="200" height="40" style="fill:white;stroke:black;stroke-width:1" /><text x="470" y="830" font-size="10" style="fill:blue">tramo</text><path d="M440 540 C460 540 440 840 460 840" style="fill:transparent;stroke:black" /><text x="470" y="840" font-size="8" style="fill:black">distancia: 61.53</text><text x="470" y="850" font-size="8" style="fill:black">longitud: 103.8625451827939</text><text x="470" y="860" font-size="8" style="fill:black">latitud: 1.291223315474236</text><text x="470" y="870" font-size="8" style="fill:black">altitud: 4.119348042924886</text><text x="470" y="880" font-size="8" style="fill:black">numeroSector: 1</text><rect x="460" y="870" width="200" height="40" style="fill:white;stroke:black;stroke-width:1" /><text x="470" y="880" font-size="10" style="fill:blue">tramo</text><path d="M440 540 C460 540 440 890 460 890" style="fill:transparent;stroke:black" /><text x="470" y="890" font-size="8" style="fill:black">distancia: 446.45</text><text x="470" y="900" font-size="8" style="fill:black">longitud: 103.8585261891954</text><text x="470" y="910" font-size="8" style="fill:black">latitud: 1.291540793571613</text><text x="470" y="920" font-size="8" style="fill:black">altitud: 4.461324138115456</text><text x="470" y="930" font-size="8" style="fill:black">numeroSector: 1</text><rect x="460" y="920" width="200" height="40" style="fill:white;stroke:black;stroke-width:1" /><text x="470" y="930" font-size="10" style="fill:blue">tramo</text><path d="M440 540 C460 540 440 940 460 940" style="fill:transparent;stroke:black" /><text x="470" y="940" font-size="8" style="fill:black">distancia: 191.00</text><text x="470" y="950" font-size="8" style="fill:black">longitud: 103.8570406597241</text><text x="470" y="960" font-size="8" style="fill:black">latitud: 1.292431233804532</text><text x="470" y="970" font-size="8" style="fill:black">altitud: 4.359140503822236</text><text x="470" y="980" font-size="8" style="fill:black">numeroSector: 1</text><rect x="460" y="970" width="200" height="40" style="fill:white;stroke:black;stroke-width:1" /><text x="470" y="980" font-size="10" style="fill:blue">tramo</text><path d="M440 540 C460 540 440 990 460 990" style="fill:transparent;stroke:black" /><text x="470" y="990" font-size="8" style="fill:black">distancia: 145.74</text><text x="470" y="1000" font-size="8" style="fill:black">longitud: 103.855897239109</text><text x="470" y="1010" font-size="8" style="fill:black">latitud: 1.293053793870836</text><text x="470" y="1020" font-size="8" style="fill:black">altitud: 4.113451670984441</text><text x="470" y="1030" font-size="8" style="fill:black">numeroSector: 2</text><rect x="460" y="1020" width="200" height="40" style="fill:white;stroke:black;stroke-width:1" /><text x="470" y="1030" font-size="10" style="fill:blue">tramo</text><path d="M440 540 C460 540 440 1040 460 1040" style="fill:transparent;stroke:black" /><text x="470" y="1040" font-size="8" style="fill:black">distancia: 216.33</text><text x="470" y="1050" font-size="8" style="fill:black">longitud: 103.8549204292429</text><text x="470" y="1060" font-size="8" style="fill:black">latitud: 1.291356868005626</text><text x="470" y="1070" font-size="8" style="fill:black">altitud: 5.038750123965714</text><text x="470" y="1080" font-size="8" style="fill:black">numeroSector: 2</text><rect x="460" y="1070" width="200" height="40" style="fill:white;stroke:black;stroke-width:1" /><text x="470" y="1080" font-size="10" style="fill:blue">tramo</text><path d="M440 540 C460 540 440 1090 460 1090" style="fill:transparent;stroke:black" /><text x="470" y="1090" font-size="8" style="fill:black">distancia: 193.21</text><text x="470" y="1100" font-size="8" style="fill:black">longitud: 103.8536563183906</text><text x="470" y="1110" font-size="8" style="fill:black">latitud: 1.292555555271884</text><text x="470" y="1120" font-size="8" style="fill:black">altitud: 5.66478119364133</text><text x="470" y="1130" font-size="8" style="fill:black">numeroSector: 2</text><rect x="460" y="1120" width="200" height="40" style="fill:white;stroke:black;stroke-width:1" /><text x="470" y="1130" font-size="10" style="fill:blue">tramo</text><path d="M440 540 C460 540 440 1140 460 1140" style="fill:transparent;stroke:black" /><text x="470" y="1140" font-size="8" style="fill:black">distancia: 454.64</text><text x="470" y="1150" font-size="8" style="fill:black">longitud: 103.8513848864062</text><text x="470" y="1160" font-size="8" style="fill:black">latitud: 1.289082506496283</text><text x="470" y="1170" font-size="8" style="fill:black">altitud: 5.297775370675355</text><text x="470" y="1180" font-size="8" style="fill:black">numeroSector: 2</text><rect x="460" y="1170" width="200" height="40" style="fill:white;stroke:black;stroke-width:1" /><text x="470" y="1180" font-size="10" style="fill:blue">tramo</text><path d="M440 540 C460 540 440 1190 460 1190" style="fill:transparent;stroke:black" /><text x="470" y="1190" font-size="8" style="fill:black">distancia: 135.59</text><text x="470" y="1200" font-size="8" style="fill:black">longitud: 103.8524044898783</text><text x="470" y="1210" font-size="8" style="fill:black">latitud: 1.288426280587492</text><text x="470" y="1220" font-size="8" style="fill:black">altitud: 4.804757307009919</text><text x="470" y="1230" font-size="8" style="fill:black">numeroSector: 2</text><rect x="460" y="1220" width="200" height="40" style="fill:white;stroke:black;stroke-width:1" /><text x="470" y="1230" font-size="10" style="fill:blue">tramo</text><path d="M440 540 C460 540 440 1240 460 1240" style="fill:transparent;stroke:black" /><text x="470" y="1240" font-size="8" style="fill:black">distancia: 71.53</text><text x="470" y="1250" font-size="8" style="fill:black">longitud: 103.8525094876264</text><text x="470" y="1260" font-size="8" style="fill:black">latitud: 1.287815540476672</text><text x="470" y="1270" font-size="8" style="fill:black">altitud: 5.695208192670382</text><text x="470" y="1280" font-size="8" style="fill:black">numeroSector: 2</text><rect x="460" y="1270" width="200" height="40" style="fill:white;stroke:black;stroke-width:1" /><text x="470" y="1280" font-size="10" style="fill:blue">tramo</text><path d="M440 540 C460 540 440 1290 460 1290" style="fill:transparent;stroke:black" /><text x="470" y="1290" font-size="8" style="fill:black">distancia: 208.18</text><text x="470" y="1300" font-size="8" style="fill:black">longitud: 103.8537740034483</text><text x="470" y="1310" font-size="8" style="fill:black">latitud: 1.286417273162441</text><text x="470" y="1320" font-size="8" style="fill:black">altitud: 8.05396849132122</text><text x="470" y="1330" font-size="8" style="fill:black">numeroSector: 2</text><rect x="460" y="1320" width="200" height="40" style="fill:white;stroke:black;stroke-width:1" /><text x="470" y="1330" font-size="10" style="fill:blue">tramo</text><path d="M440 540 C460 540 440 1340 460 1340" style="fill:transparent;stroke:black" /><text x="470" y="1340" font-size="8" style="fill:black">distancia: 494.05</text><text x="470" y="1350" font-size="8" style="fill:black">longitud: 103.8547407694085</text><text x="470" y="1360" font-size="8" style="fill:black">latitud: 1.290818429178866</text><text x="470" y="1370" font-size="8" style="fill:black">altitud: 4.996820491490725</text><text x="470" y="1380" font-size="8" style="fill:black">numeroSector: 2</text><rect x="460" y="1370" width="200" height="40" style="fill:white;stroke:black;stroke-width:1" /><text x="470" y="1380" font-size="10" style="fill:blue">tramo</text><path d="M440 540 C460 540 440 1390 460 1390" style="fill:transparent;stroke:black" /><text x="470" y="1390" font-size="8" style="fill:black">distancia: 57.86</text><text x="470" y="1400" font-size="8" style="fill:black">longitud: 103.8549362627458</text><text x="470" y="1410" font-size="8" style="fill:black">latitud: 1.291283598429453</text><text x="470" y="1420" font-size="8" style="fill:black">altitud: 4.95822939104051</text><text x="470" y="1430" font-size="8" style="fill:black">numeroSector: 3</text><rect x="460" y="1420" width="200" height="40" style="fill:white;stroke:black;stroke-width:1" /><text x="470" y="1430" font-size="10" style="fill:blue">tramo</text><path d="M440 540 C460 540 440 1440 460 1440" style="fill:transparent;stroke:black" /><text x="470" y="1440" font-size="8" style="fill:black">distancia: 278.59</text><text x="470" y="1450" font-size="8" style="fill:black">longitud: 103.8569601418661</text><text x="470" y="1460" font-size="8" style="fill:black">latitud: 1.289766063595252</text><text x="470" y="1470" font-size="8" style="fill:black">altitud: 5.031573502297936</text><text x="470" y="1480" font-size="8" style="fill:black">numeroSector: 3</text><rect x="460" y="1470" width="200" height="40" style="fill:white;stroke:black;stroke-width:1" /><text x="470" y="1480" font-size="10" style="fill:blue">tramo</text><path d="M440 540 C460 540 440 1490 460 1490" style="fill:transparent;stroke:black" /><text x="470" y="1490" font-size="8" style="fill:black">distancia: 81.78</text><text x="470" y="1500" font-size="8" style="fill:black">longitud: 103.8576926537096</text><text x="470" y="1510" font-size="8" style="fill:black">latitud: 1.289690565310503</text><text x="470" y="1520" font-size="8" style="fill:black">altitud: 5.046590446320041</text><text x="470" y="1530" font-size="8" style="fill:black">numeroSector: 3</text><rect x="460" y="1520" width="200" height="40" style="fill:white;stroke:black;stroke-width:1" /><text x="470" y="1530" font-size="10" style="fill:blue">tramo</text><path d="M440 540 C460 540 440 1540 460 1540" style="fill:transparent;stroke:black" /><text x="470" y="1540" font-size="8" style="fill:black">distancia: 53.78</text><text x="470" y="1550" font-size="8" style="fill:black">longitud: 103.8577019996136</text><text x="470" y="1560" font-size="8" style="fill:black">latitud: 1.289212605216937</text><text x="470" y="1570" font-size="8" style="fill:black">altitud: 4.737479875798975</text><text x="470" y="1580" font-size="8" style="fill:black">numeroSector: 3</text><rect x="460" y="1570" width="200" height="40" style="fill:white;stroke:black;stroke-width:1" /><text x="470" y="1580" font-size="10" style="fill:blue">tramo</text><path d="M440 540 C460 540 440 1590 460 1590" style="fill:transparent;stroke:black" /><text x="470" y="1590" font-size="8" style="fill:black">distancia: 26.85</text><text x="470" y="1600" font-size="8" style="fill:black">longitud: 103.8577662722723</text><text x="470" y="1610" font-size="8" style="fill:black">latitud: 1.288984457349752</text><text x="470" y="1620" font-size="8" style="fill:black">altitud: 4.73754242589256</text><text x="470" y="1630" font-size="8" style="fill:black">numeroSector: 3</text><rect x="460" y="1620" width="200" height="40" style="fill:white;stroke:black;stroke-width:1" /><text x="470" y="1630" font-size="10" style="fill:blue">tramo</text><path d="M440 540 C460 540 440 1640 460 1640" style="fill:transparent;stroke:black" /><text x="470" y="1640" font-size="8" style="fill:black">distancia: 23.37</text><text x="470" y="1650" font-size="8" style="fill:black">longitud: 103.8579282315565</text><text x="470" y="1660" font-size="8" style="fill:black">latitud: 1.288857665879308</text><text x="470" y="1670" font-size="8" style="fill:black">altitud: 4.42856512090922</text><text x="470" y="1680" font-size="8" style="fill:black">numeroSector: 3</text><rect x="460" y="1670" width="200" height="40" style="fill:white;stroke:black;stroke-width:1" /><text x="470" y="1680" font-size="10" style="fill:blue">tramo</text><path d="M440 540 C460 540 440 1690 460 1690" style="fill:transparent;stroke:black" /><text x="470" y="1690" font-size="8" style="fill:black">distancia: 199.03</text><text x="470" y="1700" font-size="8" style="fill:black">longitud: 103.8597159953639</text><text x="470" y="1710" font-size="8" style="fill:black">latitud: 1.288770386018364</text><text x="470" y="1720" font-size="8" style="fill:black">altitud: 4.125361615655844</text><text x="470" y="1730" font-size="8" style="fill:black">numeroSector: 3</text><rect x="460" y="1720" width="200" height="40" style="fill:white;stroke:black;stroke-width:1" /><text x="470" y="1730" font-size="10" style="fill:blue">tramo</text><path d="M440 540 C460 540 440 1740 460 1740" style="fill:transparent;stroke:black" /><text x="470" y="1740" font-size="8" style="fill:black">distancia: 87.18</text><text x="470" y="1750" font-size="8" style="fill:black">longitud: 103.8599257502683</text><text x="470" y="1760" font-size="8" style="fill:black">latitud: 1.289540390011543</text><text x="470" y="1770" font-size="8" style="fill:black">altitud: 4.588918022212829</text><text x="470" y="1780" font-size="8" style="fill:black">numeroSector: 3</text><rect x="460" y="1770" width="200" height="40" style="fill:white;stroke:black;stroke-width:1" /><text x="470" y="1780" font-size="10" style="fill:blue">tramo</text><path d="M440 540 C460 540 440 1790 460 1790" style="fill:transparent;stroke:black" /><text x="470" y="1790" font-size="8" style="fill:black">distancia: 137.84</text><text x="470" y="1800" font-size="8" style="fill:black">longitud: 103.8611727870778</text><text x="470" y="1810" font-size="8" style="fill:black">latitud: 1.289498575239345</text><text x="470" y="1820" font-size="8" style="fill:black">altitud: 4.13378980081073</text><text x="470" y="1830" font-size="8" style="fill:black">numeroSector: 3</text><rect x="460" y="1820" width="200" height="40" style="fill:white;stroke:black;stroke-width:1" /><text x="470" y="1830" font-size="10" style="fill:blue">tramo</text><path d="M440 540 C460 540 440 1840 460 1840" style="fill:transparent;stroke:black" /><text x="470" y="1840" font-size="8" style="fill:black">distancia: 42.00</text><text x="470" y="1850" font-size="8" style="fill:black">longitud: 103.8612154858073</text><text x="470" y="1860" font-size="8" style="fill:black">latitud: 1.289119560866177</text><text x="470" y="1870" font-size="8" style="fill:black">altitud: 4.119365911348806</text><text x="470" y="1880" font-size="8" style="fill:black">numeroSector: 3</text><rect x="460" y="1870" width="200" height="40" style="fill:white;stroke:black;stroke-width:1" /><text x="470" y="1880" font-size="10" style="fill:blue">tramo</text><path d="M440 540 C460 540 440 1890 460 1890" style="fill:transparent;stroke:black" /><text x="470" y="1890" font-size="8" style="fill:black">distancia: 40.00</text><text x="470" y="1900" font-size="8" style="fill:black">longitud: 103.8613995264854</text><text x="470" y="1910" font-size="8" style="fill:black">latitud: 1.288854674961246</text><text x="470" y="1920" font-size="8" style="fill:black">altitud: 4.1327866680759</text><text x="470" y="1930" font-size="8" style="fill:black">numeroSector: 3</text><rect x="460" y="1920" width="200" height="40" style="fill:white;stroke:black;stroke-width:1" /><text x="470" y="1930" font-size="10" style="fill:blue">tramo</text><path d="M440 540 C460 540 440 1940 460 1940" style="fill:transparent;stroke:black" /><text x="470" y="1940" font-size="8" style="fill:black">distancia: 284.38</text><text x="470" y="1950" font-size="8" style="fill:black">longitud: 103.8639636739132</text><text x="470" y="1960" font-size="8" style="fill:black">latitud: 1.288655397527367</text><text x="470" y="1970" font-size="8" style="fill:black">altitud: 4.119431014882751</text><text x="470" y="1980" font-size="8" style="fill:black">numeroSector: 3</text><rect x="460" y="1970" width="200" height="40" style="fill:white;stroke:black;stroke-width:1" /><text x="470" y="1980" font-size="10" style="fill:blue">tramo</text><path d="M440 540 C460 540 440 1990 460 1990" style="fill:transparent;stroke:black" /><text x="470" y="1990" font-size="8" style="fill:black">distancia: 104.5</text><text x="470" y="2000" font-size="8" style="fill:black">longitud: 103.8644511025207</text><text x="470" y="2010" font-size="8" style="fill:black">latitud: 1.289475597314474</text><text x="470" y="2020" font-size="8" style="fill:black">altitud: 4.046354048658179</text><text x="470" y="2030" font-size="8" style="fill:black">numeroSector: 3</text><rect x="460" y="2020" width="200" height="40" style="fill:white;stroke:black;stroke-width:1" /><text x="470" y="2030" font-size="10" style="fill:blue">tramo</text><path d="M440 540 C460 540 440 2040 460 2040" style="fill:transparent;stroke:black" /><text x="470" y="2040" font-size="8" style="fill:black">distancia: 110.3</text><text x="470" y="2050" font-size="8" style="fill:black">longitud: 103.8643260229208</text><text x="470" y="2060" font-size="8" style="fill:black">latitud: 1.290449539261829</text><text x="470" y="2070" font-size="8" style="fill:black">altitud: 4.07576890888359</text><text x="470" y="2080" font-size="8" style="fill:black">numeroSector: 3</text><rect x="460" y="2070" width="200" height="40" style="fill:white;stroke:black;stroke-width:1" /><text x="470" y="2080" font-size="10" style="fill:blue">tramo</text><path d="M440 540 C460 540 440 2090 460 2090" style="fill:transparent;stroke:black" /><text x="470" y="2090" font-size="8" style="fill:black">distancia: 108.00</text><text x="470" y="2100" font-size="8" style="fill:black">longitud: 103.8641625705159</text><text x="470" y="2110" font-size="8" style="fill:black">latitud: 1.291692095299434</text><text x="470" y="2120" font-size="8" style="fill:black">altitud: 4.119413763245532</text><text x="470" y="2130" font-size="8" style="fill:black">numeroSector: 3</text></svg>