<svg xmlns="http://www.w3.org/2000/svg" width="700" height="350">
        <polyline points="0,170.9833054736205 0.0013828034562184668,181.00352178816723 40.05151930591167,180.40982722386434 49.624667633312114,191.99498650931983 58.73872521324803,197.58766131083277 63.498334709552,217.05749940618082 78.55568154431488,170.98145983677801 111.79551102489438,170.98616147091562 120.3039006910066,156.12496187152848 182.03916099388005,160.56553946270802 208.45070700765277,171.24239914820225 228.6036845785807,131.0318546331071 258.51787174695477,103.82652416495657 285.2350173245518,119.77543657708091 348.10279365806815,141.20044245695806 366.85222572093437,102.50426301237772 376.7434188432651,0.0 405.53062119482115,132.85398385822887 473.84802594929454,134.5310310396438 481.8489267469746,131.3437279147606 520.3724482337649,130.6911390185661 531.6810148987195,144.12410685286477 539.1177318862624,144.12138862361192 542.830559166209,157.5485651590926 546.0621708433915,170.7248306179202 573.5841080325076,150.58013518364126 585.6393885638203,170.3585683451799 604.6999514043356,170.98538496572084 610.5077259204531,170.40216132143365 616.038939745327,170.98255577202522 655.3631044332677,174.15824961862535 669.8134005507507,172.8799728175691 685.0657226728404,170.9833054736205 699.9999999999998,350 0,350" fill="lightblue" stroke="black" stroke-width="3"/>
        <text x="10" y="20" font-size="16" fill="black">Perfil de Altimetría del Circuito</text>
    </svg>